<svg viewBox="0 0 32 32" xmlns="http://www.w3.org/2000/svg" xmlns:xlink="http://www.w3.org/1999/xlink"><clipPath id="a"><circle cx="16" cy="16" r="14"/></clipPath><circle cx="16" cy="16" fill="#059669" r="16"/><circle clip-path="url(#a)" cx="16" cy="16" fill="#fff" r="14"/><g clip-path="url(#a)" fill="#0f172a"><path d="m16 6 4 3-2.5 4h-3l-2.5-4z"/><path d="m14.5 13h3l2.5 3-2 3h-4l-2-3z"/><path d="m17.5 13 4.5-2 2 4-6 4z"/><path d="m18 19 6-4-1 6-4 3-3-2z"/><path d="m14.5 13-2.5-4-3 2-.5 4 3.5 1z"/><path d="m12 16-3.5-1 .5 6 3 3 2-5z"/><path d="m14 19h4l1 5-3 3-3-3z"/></g><text fill="#059669" font-family="Arial, sans-serif" font-size="10" font-weight="bold" text-anchor="middle" x="16" y="20">VLC</text><ellipse cx="11" cy="10" fill="#fff" opacity=".4" rx="4" ry="2" transform="matrix(.96592583 -.25881905 .25881905 .96592583 -2.213375 3.187751)"/></svg>